<?xml version="1.0" standalone="no"?>
<!DOCTYPE svg PUBLIC "-//W3C//DTD SVG 20010904//EN"
 "http://www.w3.org/TR/2001/REC-SVG-20010904/DTD/svg10.dtd">
<svg version="1.0" xmlns="http://www.w3.org/2000/svg"
 width="224.000000pt" height="224.000000pt" viewBox="0 0 224.000000 224.000000"
 preserveAspectRatio="xMidYMid meet">
<metadata>
Created by potrace 1.10, written by Peter Selinger 2001-2011
</metadata>
<g transform="translate(0.000000,224.000000) scale(0.100000,-0.100000)"
fill="#000000" stroke="none">
<path d="M950 1706 c-123 -35 -252 -121 -323 -214 -42 -57 -55 -65 -155 -110
-55 -25 -128 -89 -179 -157 -103 -139 -102 -384 3 -526 62 -84 146 -151 191
-151 37 -1 53 27 53 89 0 49 -4 58 -42 101 -24 26 -46 49 -49 52 -4 3 -17 25
-30 50 -19 37 -24 60 -24 127 0 52 5 87 13 95 6 6 12 19 12 28 0 8 21 37 46
63 47 49 122 92 181 103 34 6 50 22 117 116 42 59 129 124 206 155 33 13 72
18 145 18 92 0 105 -3 165 -32 82 -41 150 -96 186 -153 29 -44 58 -101 56
-110 0 -3 9 -25 21 -50 21 -43 24 -45 82 -55 107 -19 156 -53 208 -148 22 -40
22 -127 1 -170 -15 -30 -100 -117 -114 -117 -10 0 -30 -48 -30 -74 0 -42 21
-86 45 -92 66 -16 225 117 265 222 30 79 30 205 2 286 -38 107 -130 202 -232
239 -66 24 -79 35 -115 102 -37 71 -99 150 -142 184 -53 41 -158 103 -175 103
-8 0 -18 4 -23 9 -31 28 -283 40 -365 17z m292 -27 c170 -37 339 -179 404
-342 17 -42 24 -49 59 -57 108 -27 196 -98 251 -202 35 -69 37 -78 37 -163 0
-110 -25 -176 -98 -248 -38 -39 -147 -107 -170 -107 -3 0 -5 29 -5 65 0 48 4
65 13 65 30 0 95 60 121 111 61 124 14 271 -110 340 -36 21 -66 29 -110 31
-55 3 -59 5 -62 28 -9 74 -73 190 -139 250 -101 94 -182 125 -323 125 -88 0
-115 -4 -165 -24 -109 -45 -213 -139 -250 -227 -11 -27 -21 -33 -81 -47 -115
-29 -199 -102 -239 -209 -24 -65 -18 -176 14 -242 27 -54 88 -126 108 -126 9
0 13 -20 13 -70 l0 -71 -40 23 c-46 26 -125 99 -156 143 -48 70 -69 145 -68
245 0 89 3 100 38 170 48 99 119 171 212 216 39 19 78 34 87 34 8 0 31 24 50
53 78 115 195 198 332 233 64 16 208 17 277 3z"/>
<path d="M654 1125 c-58 -59 -74 -81 -74 -104 0 -16 6 -31 13 -33 9 -4 14 -58
18 -204 3 -109 7 -200 7 -202 1 -2 17 -16 34 -33 32 -28 35 -29 141 -29 146 0
169 15 132 86 -11 22 -15 65 -15 172 0 78 4 142 8 142 5 0 16 -8 25 -18 14
-15 17 -42 18 -138 1 -212 26 -244 188 -244 151 0 165 10 131 87 -15 34 -20
67 -20 129 0 50 4 84 10 84 6 0 5 8 -2 20 -10 16 -9 24 10 50 15 20 21 38 17
51 -10 31 -112 135 -150 153 -31 15 -38 15 -62 2 -33 -17 -126 -111 -143 -145
-8 -15 -15 -20 -22 -13 -6 6 -4 20 6 40 26 51 20 68 -51 138 -66 63 -97 84
-129 84 -9 0 -49 -34 -90 -75z m192 -29 c80 -80 83 -85 59 -88 l-27 -3 2 -200
c1 -198 1 -200 25 -225 14 -15 25 -28 25 -31 0 -6 -206 0 -237 7 -45 9 -53 47
-53 260 l0 196 -25 -4 c-14 -3 -25 -3 -25 1 0 6 162 171 168 171 2 0 42 -38
88 -84z m434 -179 c0 -5 -11 -6 -25 -3 l-25 6 0 -150 c0 -146 1 -152 25 -184
14 -18 25 -35 25 -37 0 -2 -53 -3 -117 -1 -111 3 -119 4 -140 28 -22 24 -23
33 -23 184 l0 160 -30 -6 c-16 -4 -30 -4 -30 -2 0 3 39 44 88 91 l87 86 83
-82 c45 -45 82 -86 82 -90z"/>
<path d="M1379 950 c-36 -33 -74 -71 -83 -85 -16 -25 -16 -28 2 -58 14 -22 21
-58 25 -118 8 -148 30 -168 177 -169 133 0 150 5 150 39 0 15 -7 36 -15 47
-20 26 -20 163 0 190 29 38 18 63 -59 140 -94 95 -107 95 -197 14z m179 -41
c45 -44 82 -82 82 -85 0 -2 -11 -4 -25 -4 l-25 0 0 -108 c0 -103 1 -110 25
-132 14 -13 25 -26 25 -29 0 -11 -224 0 -248 11 -32 16 -44 69 -40 171 l3 87
-27 0 c-16 0 -28 2 -28 4 0 5 164 166 170 166 3 0 42 -36 88 -81z"/>
</g>
</svg>
