<?xml version="1.0" standalone="no"?>
<!DOCTYPE svg PUBLIC "-//W3C//DTD SVG 20010904//EN"
 "http://www.w3.org/TR/2001/REC-SVG-20010904/DTD/svg10.dtd">
<svg version="1.0" xmlns="http://www.w3.org/2000/svg"
 width="275.000000pt" height="183.000000pt" viewBox="0 0 275.000000 183.000000"
 preserveAspectRatio="xMidYMid meet">
<metadata>
Created by potrace 1.10, written by Peter Selinger 2001-2011
</metadata>
<g transform="translate(0.000000,183.000000) scale(0.100000,-0.100000)"
fill="#000000" stroke="none">
<path d="M1034 1495 c-14 -22 -16 -43 -11 -135 l6 -110 -138 0 c-121 0 -140
-2 -154 -18 -15 -16 -17 -53 -17 -319 0 -278 1 -301 18 -316 26 -24 292 -25
292 -2 0 11 -13 15 -57 16 -191 3 -204 4 -213 19 -13 20 -13 550 0 570 7 12
39 16 137 21 70 3 139 10 153 16 14 7 20 12 14 12 -10 1 -9 197 1 229 4 10 55
12 232 10 l228 -3 6 -110 5 -110 2 115 2 115 222 -3 c163 -2 224 -6 230 -15 4
-6 8 -60 8 -119 0 -58 3 -113 6 -122 5 -14 -18 -16 -217 -18 l-224 -2 215 -6
215 -5 5 -143 c3 -79 3 -146 1 -148 -2 -2 -104 -5 -225 -6 l-221 -2 220 -6
220 -5 2 -259 c1 -152 -2 -267 -8 -278 -9 -17 -36 -18 -458 -18 -347 0 -451 3
-459 12 -11 14 -21 138 -11 138 3 0 4 13 1 30 l-4 30 144 0 c156 0 180 7 192
55 4 14 11 25 16 25 6 0 10 55 10 140 0 87 -4 140 -10 140 -5 0 -10 5 -10 11
0 5 5 7 10 4 6 -4 10 46 10 143 0 132 -2 151 -18 165 -10 10 -27 17 -37 17
-18 0 -18 -1 0 -14 11 -8 22 -13 25 -11 3 2 4 -135 2 -303 -2 -266 -5 -308
-19 -324 -14 -16 -35 -18 -178 -18 -121 0 -164 -3 -167 -12 -3 -7 -6 -57 -7
-112 -1 -75 2 -104 14 -122 l15 -24 480 0 c464 0 480 1 490 19 14 27 14 1145
0 1172 -10 18 -26 19 -490 19 l-480 0 -16 -25z"/>
<path d="M1455 1213 c80 -10 74 2 78 -151 l3 -137 2 148 2 147 -57 -1 c-32 -1
-44 -4 -28 -6z"/>
<path d="M894 1109 c-19 -21 -19 -22 27 -108 l46 -86 -36 -55 c-20 -30 -43
-70 -51 -89 -13 -32 -12 -35 9 -52 46 -37 103 -20 144 44 23 35 30 34 50 -9
23 -46 76 -71 114 -52 51 25 51 39 0 127 -26 44 -47 84 -47 89 0 5 20 44 45
87 40 71 43 81 31 100 -9 13 -26 21 -52 23 -41 3 -63 -11 -99 -60 l-16 -23
-17 25 c-33 48 -51 60 -90 60 -27 0 -45 -7 -58 -21z m130 -79 l34 -71 38 71
c38 70 38 70 80 70 l43 0 -58 -92 -58 -92 51 -81 c29 -44 55 -86 60 -92 5 -10
-5 -13 -38 -13 l-46 0 -35 70 c-19 39 -37 70 -40 70 -3 0 -21 -31 -40 -70
l-35 -70 -46 0 c-33 0 -43 3 -38 13 4 6 30 46 57 87 28 41 50 79 50 85 0 5
-11 28 -24 50 -14 22 -37 61 -52 88 l-28 47 46 0 46 0 33 -70z"/>
</g>
</svg>
