<?xml version="1.0" standalone="no"?>
<!DOCTYPE svg PUBLIC "-//W3C//DTD SVG 20010904//EN"
 "http://www.w3.org/TR/2001/REC-SVG-20010904/DTD/svg10.dtd">
<svg version="1.0" xmlns="http://www.w3.org/2000/svg"
 width="300.000000pt" height="158.000000pt" viewBox="0 0 300.000000 158.000000"
 preserveAspectRatio="xMidYMid meet">
<metadata>
Created by potrace 1.10, written by Peter Selinger 2001-2011
</metadata>
<g transform="translate(0.000000,158.000000) scale(0.100000,-0.100000)"
fill="#000000" stroke="none">
<path d="M1462 1117 l-94 -52 -94 -187 c-52 -103 -94 -192 -94 -197 0 -5 11
-16 25 -25 24 -16 27 -16 53 2 43 31 165 103 167 100 2 -2 32 -72 68 -157 57
-135 69 -156 99 -173 l34 -20 101 57 101 56 -32 97 c-33 96 -33 96 -71 105
-100 20 -136 145 -61 205 l23 18 -30 96 c-24 77 -36 99 -58 112 -15 9 -31 16
-36 16 -4 0 -50 -24 -101 -53z m128 23 c18 -11 23 -7 -81 -63 -72 -39 -89 -44
-98 -33 -9 11 4 22 66 59 85 49 91 51 113 37z m33 -119 l17 -52 -25 -43 c-27
-46 -33 -111 -14 -149 20 -38 61 -76 95 -87 36 -12 63 -57 71 -119 5 -36 4
-38 -55 -69 -33 -18 -62 -32 -65 -32 -11 0 -179 532 -171 540 22 19 110 69
119 67 6 -2 18 -27 28 -56z m-215 2 c13 -12 52 -114 111 -293 50 -151 91 -279
91 -283 0 -4 -8 -3 -18 2 -11 6 -54 94 -108 220 -49 116 -91 211 -94 211 -3 0
-33 -39 -68 -87 -93 -132 -95 -134 -112 -123 -12 8 0 39 75 189 50 98 93 180
96 180 4 1 16 -7 27 -16z"/>
<path d="M1688 890 c-24 -25 -29 -36 -23 -58 25 -100 155 -84 155 19 0 28 -44
69 -75 69 -16 0 -39 -12 -57 -30z m83 0 c10 -6 19 -17 19 -26 0 -22 -46 -64
-69 -64 -29 0 -45 34 -30 63 20 38 44 46 80 27z"/>
</g>
</svg>
