<?xml version="1.0" standalone="no"?>
<!DOCTYPE svg PUBLIC "-//W3C//DTD SVG 20010904//EN"
 "http://www.w3.org/TR/2001/REC-SVG-20010904/DTD/svg10.dtd">
<svg version="1.0" xmlns="http://www.w3.org/2000/svg"
 width="225.000000pt" height="225.000000pt" viewBox="0 0 225.000000 225.000000"
 preserveAspectRatio="xMidYMid meet">
<metadata>
Created by potrace 1.10, written by Peter Selinger 2001-2011
</metadata>
<g transform="translate(0.000000,225.000000) scale(0.100000,-0.100000)"
fill="#000000" stroke="none">
<path d="M1091 1784 c-75 -81 -141 -224 -141 -303 0 -26 -1 -26 -75 -26 -86 0
-86 -1 -111 -84 -25 -84 -16 -202 22 -276 105 -208 364 -277 554 -147 108 74
166 183 164 312 -1 93 -27 165 -91 252 -39 53 -217 272 -258 316 -10 11 -22 2
-64 -44z m132 -91 c125 -144 186 -225 215 -283 24 -48 27 -67 27 -150 0 -112
-17 -156 -89 -237 -73 -81 -128 -90 -195 -32 l-35 29 14 52 c33 125 6 234 -76
315 -29 29 -59 53 -66 53 -7 0 -19 9 -26 20 -15 25 -1 88 39 175 28 59 92 145
109 145 4 0 42 -39 83 -87z m-196 -275 c47 -28 100 -94 117 -146 22 -64 20
-157 -5 -211 -11 -25 -16 -48 -12 -52 4 -4 36 -25 70 -47 l63 -40 -79 -7 c-85
-7 -145 0 -135 17 4 6 -1 6 -14 -1 -43 -23 -170 76 -219 172 -46 89 -44 265 4
312 8 9 33 15 61 15 26 0 54 5 62 10 18 11 43 5 87 -22z"/>
<path d="M550 528 c0 -111 1 -118 20 -118 17 0 20 7 20 50 l0 50 45 0 c33 0
45 4 45 15 0 11 -12 15 -45 15 -45 0 -45 0 -45 35 l0 35 50 0 c36 0 50 4 50
14 0 11 -18 15 -70 18 l-70 3 0 -117z"/>
<path d="M714 635 c-7 -18 3 -35 21 -35 18 0 26 25 12 39 -15 15 -27 14 -33
-4z"/>
<path d="M1060 531 c0 -98 3 -121 14 -121 8 0 16 6 19 13 4 10 7 10 18 0 21
-20 64 -15 87 10 31 33 30 90 -3 122 -28 29 -51 31 -82 10 -21 -15 -21 -14
-20 32 2 38 -2 48 -15 51 -16 3 -18 -8 -18 -117z m112 2 c34 -31 13 -93 -32
-93 -20 0 -50 35 -50 57 0 16 36 53 52 53 6 0 20 -7 30 -17z"/>
<path d="M832 564 c-12 -8 -22 -10 -22 -5 0 6 -7 11 -15 11 -12 0 -15 -16 -15
-80 0 -73 2 -80 20 -80 16 0 19 8 22 63 3 59 4 62 31 65 19 2 27 9 27 23 0 23
-18 24 -48 3z"/>
<path d="M909 551 c-37 -38 -39 -82 -4 -116 36 -37 125 -30 125 10 0 18 -21
20 -37 4 -16 -16 -54 -7 -71 19 l-14 22 66 0 c60 0 66 2 66 20 0 29 -44 70
-75 70 -16 0 -38 -12 -56 -29z m87 -18 c17 -17 16 -18 -25 -21 -50 -4 -59 1
-41 23 17 20 44 19 66 -2z"/>
<path d="M1261 564 c-30 -21 -10 -36 29 -21 22 8 32 8 44 -2 25 -21 19 -29
-23 -27 -45 1 -71 -17 -71 -50 0 -45 47 -67 91 -44 13 7 19 7 19 0 0 -5 7 -10
15 -10 25 0 21 124 -5 150 -24 24 -67 26 -99 4z m84 -84 c10 -16 -14 -40 -41
-40 -29 0 -40 16 -24 35 14 17 56 20 65 5z"/>
<path d="M1420 560 c-11 -11 -20 -24 -20 -28 0 -18 27 -40 63 -52 39 -12 45
-32 12 -38 -10 -2 -28 2 -41 9 -31 16 -42 4 -19 -21 34 -37 115 -20 115 25 0
25 -33 55 -62 55 -22 0 -33 19 -19 33 7 7 17 7 34 0 35 -16 55 0 26 21 -31 22
-65 20 -89 -4z"/>
<path d="M1575 555 c-52 -52 -19 -145 51 -145 30 0 74 24 74 41 0 12 -37 12
-45 -1 -16 -25 -75 -3 -75 28 0 11 14 13 60 10 59 -3 60 -3 60 24 0 32 -41 68
-77 68 -13 0 -35 -11 -48 -25z m83 -17 c21 -21 13 -28 -33 -28 -47 0 -58 12
-27 29 23 14 45 14 60 -1z"/>
<path d="M710 490 c0 -73 2 -80 20 -80 18 0 20 7 20 80 0 73 -2 80 -20 80 -18
0 -20 -7 -20 -80z"/>
</g>
</svg>
