<?xml version="1.0" standalone="no"?>
<!DOCTYPE svg PUBLIC "-//W3C//DTD SVG 20010904//EN"
 "http://www.w3.org/TR/2001/REC-SVG-20010904/DTD/svg10.dtd">
<svg version="1.0" xmlns="http://www.w3.org/2000/svg"
 width="293.000000pt" height="172.000000pt" viewBox="0 0 293.000000 172.000000"
 preserveAspectRatio="xMidYMid meet">
<metadata>
Created by potrace 1.10, written by Peter Selinger 2001-2011
</metadata>
<g transform="translate(0.000000,172.000000) scale(0.100000,-0.100000)"
fill="#000000" stroke="none">
<path d="M1395 1589 c-11 -6 -53 -43 -93 -82 l-72 -72 76 -76 75 -76 49 5 c46
4 52 2 86 -32 34 -34 36 -40 32 -86 l-5 -49 69 -68 c67 -67 69 -68 122 -68 64
0 100 -26 117 -85 22 -71 -35 -140 -114 -140 -65 0 -123 73 -107 131 8 26 2
35 -67 104 -41 41 -78 75 -82 75 -3 0 -5 -87 -4 -194 l3 -194 35 -35 c28 -28
35 -43 35 -74 0 -84 -79 -141 -153 -109 -45 19 -68 48 -73 93 -6 44 24 102 57
110 18 5 19 15 19 208 0 193 -1 203 -19 208 -34 9 -63 66 -57 113 5 39 3 42
-70 115 l-74 74 -225 -225 c-232 -232 -255 -262 -236 -313 8 -21 639 -656 674
-679 7 -4 30 -8 51 -8 39 0 48 8 364 323 178 177 330 335 339 351 32 61 26 69
-330 424 -286 285 -338 333 -367 337 -19 3 -44 0 -55 -6z m70 -28 c16 -2 646
-634 656 -659 6 -16 4 -33 -5 -55 -8 -18 -153 -170 -329 -345 -266 -263 -319
-312 -344 -312 -15 0 -34 4 -42 9 -7 5 -157 152 -332 326 -299 298 -319 320
-319 353 0 33 16 52 214 251 l214 214 56 -53 c49 -47 56 -57 56 -92 0 -42 19
-87 56 -131 23 -27 24 -35 24 -191 l0 -163 -29 -37 c-62 -77 -61 -159 0 -210
136 -115 316 64 199 198 l-29 33 -2 147 c0 81 1 149 3 151 2 3 23 -14 46 -37
35 -34 42 -47 42 -80 0 -137 158 -196 250 -92 24 28 30 44 30 82 0 86 -53 139
-149 148 -39 4 -53 12 -95 55 -43 44 -51 58 -57 107 -4 30 -16 67 -27 81 -26
36 -79 61 -128 61 -37 0 -47 6 -93 55 -59 62 -58 66 6 126 52 49 81 68 101 64
9 -2 21 -4 27 -4z"/>
</g>
</svg>
