<?xml version="1.0" standalone="no"?>
<!DOCTYPE svg PUBLIC "-//W3C//DTD SVG 20010904//EN"
 "http://www.w3.org/TR/2001/REC-SVG-20010904/DTD/svg10.dtd">
<svg version="1.0" xmlns="http://www.w3.org/2000/svg"
 width="224.000000pt" height="224.000000pt" viewBox="0 0 224.000000 224.000000"
 preserveAspectRatio="xMidYMid meet">
<metadata>
Created by potrace 1.10, written by Peter Selinger 2001-2011
</metadata>
<g transform="translate(0.000000,224.000000) scale(0.100000,-0.100000)"
fill="#000000" stroke="none">
<path d="M995 1951 c-327 -53 -599 -286 -694 -595 -124 -401 61 -832 439
-1022 39 -19 87 -38 106 -41 55 -9 64 6 64 106 l0 86 -73 -3 c-134 -7 -172 15
-237 135 -22 41 -50 77 -71 91 -42 29 -45 56 -7 60 40 5 98 -32 137 -86 59
-82 106 -103 204 -88 41 6 45 10 51 40 4 19 15 45 26 59 27 34 26 37 -15 37
-53 0 -154 37 -208 76 -85 62 -130 156 -143 298 -8 86 9 156 56 229 28 45 30
51 20 89 -12 41 -7 95 12 157 10 32 11 33 52 27 46 -8 141 -49 168 -73 16 -14
25 -14 80 -2 78 17 244 17 319 0 55 -12 58 -11 108 18 60 36 141 64 168 59 35
-7 57 -140 33 -203 -8 -21 -5 -32 20 -66 48 -66 63 -128 58 -233 -10 -193 -99
-312 -270 -361 -32 -9 -71 -17 -88 -17 -30 -1 -39 -11 -20 -23 6 -3 18 -21 27
-38 14 -25 18 -69 23 -202 l5 -170 30 -3 c62 -6 233 91 338 191 193 185 290
454 257 714 -24 195 -89 338 -221 486 -93 106 -256 204 -409 247 -84 23 -264
34 -345 21z m230 -36 c80 -12 180 -40 192 -55 6 -8 15 -12 19 -8 4 4 31 -6 60
-21 29 -16 56 -26 60 -23 4 4 4 1 0 -5 -5 -9 -1 -13 11 -13 15 0 16 -2 3 -11
-12 -9 -11 -10 8 -6 15 3 22 0 22 -9 0 -14 12 -18 39 -14 9 1 12 -4 7 -15 -4
-12 -2 -16 8 -12 9 4 16 -3 20 -19 4 -14 11 -22 16 -19 13 8 128 -137 122
-156 -1 -5 2 -9 8 -9 5 0 17 -11 26 -25 14 -21 14 -28 3 -43 -7 -9 -10 -14 -5
-10 26 22 82 -130 90 -247 4 -56 3 -73 -4 -55 -9 23 -9 23 -4 -5 15 -78 16
-108 5 -101 -8 5 -8 0 -2 -17 10 -26 1 -89 -24 -157 -9 -25 -18 -50 -19 -56
-1 -7 -8 -19 -15 -28 -7 -8 -10 -20 -7 -25 4 -5 2 -12 -3 -15 -5 -3 -26 -35
-47 -70 -21 -36 -42 -62 -47 -59 -6 3 -7 1 -3 -5 3 -6 -5 -23 -19 -38 -22 -23
-27 -25 -42 -13 -15 13 -15 12 -4 -8 10 -20 9 -29 -3 -20 -1 1 -15 -13 -30
-30 -24 -29 -56 -47 -42 -25 3 5 -1 9 -8 9 -8 0 -11 -8 -9 -18 4 -12 -5 -24
-26 -37 -17 -10 -28 -22 -23 -27 4 -5 1 -5 -6 0 -17 9 -64 -14 -55 -28 4 -6
-2 -8 -15 -5 -14 4 -20 2 -15 -5 4 -7 0 -8 -11 -4 -13 5 -17 3 -13 -5 3 -9 -7
-14 -28 -15 -43 -2 -45 6 -45 175 0 72 -4 132 -9 132 -5 0 -8 8 -6 18 1 9 -2
22 -6 28 -7 8 6 13 40 18 28 4 53 11 56 16 3 5 13 6 22 3 12 -5 14 -3 8 7 -5
8 -3 11 6 8 14 -5 24 1 70 43 15 15 30 25 32 23 6 -6 57 63 57 76 0 8 8 10 21
7 17 -5 18 -3 8 10 -9 10 -9 17 -2 21 11 7 15 25 35 149 13 85 1 182 -31 243
-11 21 -17 41 -13 45 4 4 0 5 -8 3 -12 -2 -15 10 -12 72 3 82 -13 169 -33 176
-7 3 -11 15 -8 27 4 18 3 19 -6 7 -8 -11 -13 -12 -18 -4 -9 14 -123 -4 -123
-18 0 -5 -4 -7 -9 -3 -5 3 -16 -1 -24 -9 -8 -8 -18 -12 -22 -8 -3 4 -13 -1
-20 -12 -9 -11 -20 -16 -30 -12 -9 3 -14 2 -11 -3 3 -5 -3 -11 -14 -14 -12 -3
-17 -1 -14 5 3 5 0 9 -7 7 -8 -1 -27 -1 -44 0 -21 1 -26 4 -16 10 10 7 10 10
1 16 -7 4 -16 2 -20 -4 -5 -9 -36 -11 -116 -7 -71 4 -102 3 -89 -3 29 -14 -5
-14 -41 -1 -22 9 -25 8 -16 -2 16 -20 -46 -17 -84 4 -17 10 -34 14 -38 11 -3
-4 -6 -2 -6 4 0 15 -76 47 -94 40 -9 -4 -16 -2 -16 3 0 6 -11 10 -24 10 -50 0
-104 -124 -90 -209 9 -56 7 -72 -13 -87 -10 -7 -13 -16 -8 -24 6 -9 4 -11 -5
-5 -10 6 -12 4 -7 -9 4 -9 -2 -30 -13 -49 -36 -59 -25 -254 20 -349 9 -21 21
-34 25 -30 5 4 5 1 1 -5 -4 -8 12 -31 42 -60 86 -84 97 -91 185 -113 42 -11
47 -15 47 -41 0 -20 -5 -29 -16 -29 -8 0 -12 -4 -9 -10 3 -5 -3 -10 -14 -10
-12 0 -21 4 -21 10 0 5 -7 7 -15 4 -8 -4 -12 -10 -9 -15 3 -5 -2 -6 -10 -3 -9
3 -13 11 -9 17 4 6 -1 8 -14 5 -13 -3 -24 1 -32 14 -6 10 -15 16 -20 14 -4 -3
-7 6 -5 19 1 14 -2 22 -7 19 -15 -9 -68 54 -64 76 3 13 -1 17 -12 13 -12 -5
-12 -7 -1 -14 22 -14 2 -10 -28 6 -35 18 -94 20 -95 3 0 -10 -2 -10 -6 0 -3 9
-10 4 -19 -13 -19 -37 -18 -39 16 -77 17 -18 28 -39 25 -46 -3 -7 -1 -11 4 -7
5 3 16 -1 24 -9 8 -8 18 -12 22 -8 5 4 5 -1 2 -10 -8 -24 2 -50 17 -41 6 4 4
-2 -4 -12 -9 -11 -10 -16 -3 -11 15 9 17 -5 3 -22 -7 -9 -7 -9 2 -2 18 15 25
12 32 -14 4 -18 12 -24 26 -21 11 2 18 0 16 -4 -6 -8 18 -23 69 -42 36 -14
102 -20 83 -8 -9 6 -7 9 7 8 22 0 66 -17 50 -18 -5 -1 -3 -6 5 -11 8 -5 10
-10 5 -10 -7 0 -9 -14 -7 -34 2 -18 -1 -37 -7 -41 -13 -7 -146 34 -137 43 7 6
-95 67 -106 64 -5 -1 -8 7 -8 19 0 11 -4 17 -10 14 -5 -3 -10 -1 -10 4 0 6 -6
11 -14 11 -19 0 -107 101 -99 113 3 6 1 7 -5 4 -26 -17 -153 262 -155 339 0
24 -4 41 -8 38 -10 -6 -6 258 5 274 4 7 6 16 3 18 -3 3 1 21 9 40 8 19 12 39
9 44 -4 6 -2 10 4 10 5 0 12 13 16 29 3 16 12 31 18 34 7 2 18 25 25 50 8 25
25 55 38 68 13 12 24 31 24 41 0 11 4 16 10 13 5 -3 10 -2 10 3 0 4 16 26 35
48 19 21 35 43 35 47 0 5 5 5 10 2 6 -3 10 -1 10 4 0 6 7 11 15 11 9 0 18 7
21 15 4 8 12 15 20 15 8 0 14 7 14 15 0 8 11 17 25 21 14 3 22 10 19 15 -3 5
2 6 10 3 9 -3 16 -2 16 3 0 11 75 48 97 48 8 0 17 5 21 10 10 14 141 46 226
55 70 7 93 7 171 -5z"/>
</g>
</svg>
