<?xml version="1.0" standalone="no"?>
<!DOCTYPE svg PUBLIC "-//W3C//DTD SVG 20010904//EN"
 "http://www.w3.org/TR/2001/REC-SVG-20010904/DTD/svg10.dtd">
<svg version="1.0" xmlns="http://www.w3.org/2000/svg"
 width="216.000000pt" height="234.000000pt" viewBox="0 0 216.000000 234.000000"
 preserveAspectRatio="xMidYMid meet">
<metadata>
Created by potrace 1.10, written by Peter Selinger 2001-2011
</metadata>
<g transform="translate(0.000000,234.000000) scale(0.100000,-0.100000)"
fill="#000000" stroke="none">
<path d="M1590 2240 c0 -28 2 -30 40 -30 38 0 40 2 40 30 0 28 -2 30 -40 30
-38 0 -40 -2 -40 -30z"/>
<path d="M110 2226 c0 -26 2 -28 29 -23 28 6 28 5 35 -47 7 -60 -1 -117 -18
-128 -6 -4 -28 -8 -50 -8 -31 0 -37 -3 -32 -16 3 -9 6 -20 6 -25 0 -15 88 -10
120 6 37 19 45 55 41 205 l-1 65 -65 0 c-65 0 -65 0 -65 -29z"/>
<path d="M1023 2243 c-39 -20 -59 -67 -44 -106 7 -18 25 -31 66 -46 31 -12 62
-21 70 -21 18 0 18 -5 5 -31 -13 -23 -72 -26 -110 -4 -39 23 -48 19 -41 -17 5
-26 13 -34 41 -41 19 -5 57 -7 84 -4 58 5 96 40 96 88 0 40 -29 65 -95 84 -59
18 -71 38 -32 56 23 10 58 5 108 -15 13 -6 16 -1 15 23 -1 35 -8 39 -79 46
-37 3 -61 0 -84 -12z"/>
<path d="M1963 2233 c-3 -6 -2 -16 1 -21 3 -5 -3 -17 -14 -27 -18 -16 -18 -19
-3 -42 10 -14 18 -53 21 -92 2 -36 5 -67 7 -69 1 -1 24 -5 51 -8 38 -5 53 -3
63 9 18 22 6 37 -30 37 -26 0 -29 3 -30 33 0 17 -2 44 -4 60 -3 25 -1 27 31
27 30 0 34 3 34 25 0 22 -4 25 -32 23 -29 -3 -32 0 -32 26 -1 25 -5 29 -30 30
-15 1 -30 -4 -33 -11z"/>
<path d="M304 2173 c-3 -10 -6 -22 -7 -28 -1 -5 20 -8 49 -6 35 1 54 -2 63
-12 10 -13 4 -16 -40 -22 -78 -11 -112 -60 -75 -111 12 -16 27 -19 100 -19
l85 0 -4 30 c-2 17 -4 58 -4 92 -1 59 -3 63 -31 78 -42 22 -130 20 -136 -2z
m104 -130 c-2 -23 -9 -29 -34 -31 -29 -3 -30 -1 -26 27 4 27 9 31 34 31 26 0
29 -3 26 -27z"/>
<path d="M537 2086 c35 -103 37 -106 70 -112 19 -4 35 -5 37 -3 5 6 76 201 76
209 0 4 -14 7 -32 6 -30 -1 -32 -5 -49 -65 -10 -35 -20 -65 -23 -68 -2 -2 -14
25 -26 61 -12 36 -27 66 -33 66 -7 0 -22 3 -34 6 -22 6 -22 4 14 -100z"/>
<path d="M762 2178 c-7 -7 -12 -19 -12 -28 0 -12 8 -15 35 -12 40 5 85 -4 85
-17 0 -5 -21 -12 -46 -16 -61 -9 -99 -45 -89 -83 10 -43 21 -47 111 -47 l84 0
0 87 c0 82 -1 88 -26 107 -30 24 -122 29 -142 9z m104 -124 c-3 -9 -6 -22 -6
-30 0 -9 -11 -14 -30 -14 -25 0 -30 4 -30 23 0 31 7 37 43 37 22 0 28 -4 23
-16z"/>
<path d="M1262 2170 c-69 -43 -70 -143 -1 -184 26 -16 113 -25 125 -14 2 3 7
19 10 36 l7 32 -37 -15 c-21 -9 -46 -13 -56 -10 -25 8 -39 53 -28 93 9 32 11
34 46 30 20 -3 45 -8 55 -12 14 -7 17 -3 17 18 0 47 -78 62 -138 26z"/>
<path d="M1430 2080 l0 -110 36 0 c33 0 36 2 30 23 -3 12 -3 46 1 75 6 51 6
52 39 52 32 0 34 2 34 36 0 31 -3 35 -17 28 -23 -10 -61 -10 -95 -1 l-28 7 0
-110z"/>
<path d="M1600 2078 l0 -108 30 0 30 0 0 108 0 107 -30 0 -30 0 0 -107z"/>
<path d="M1713 2174 c-2 -5 -2 -70 -1 -144 l3 -135 33 -2 c31 -3 32 -2 32 37
0 39 1 40 35 40 72 0 105 37 105 117 0 39 -25 93 -43 94 -82 5 -160 2 -164 -7z
m137 -88 c0 -59 -1 -60 -42 -70 l-28 -6 0 65 0 65 35 0 35 0 0 -54z"/>
<path d="M1083 1833 l-772 -3 5 -48 c2 -26 14 -153 25 -282 37 -440 69 -805
79 -885 5 -44 14 -144 21 -222 12 -140 12 -142 38 -148 28 -6 199 -55 371
-106 58 -17 133 -38 168 -47 71 -17 72 -17 327 56 77 22 192 55 256 73 l117
32 6 71 c3 39 15 175 26 301 11 127 31 356 45 510 13 154 31 357 40 450 8 94
17 189 20 213 4 23 5 41 3 40 -2 -2 -350 -4 -775 -5z m743 -36 c4 -4 1 -7 -7
-7 -9 0 -10 -3 -3 -8 7 -5 8 -35 2 -92 -9 -100 -17 -194 -25 -307 -3 -46 -8
-83 -12 -83 -3 0 -4 -32 -3 -71 2 -39 0 -69 -5 -66 -4 3 -9 -26 -10 -64 -1
-37 -9 -135 -17 -216 -9 -81 -17 -185 -18 -229 -2 -45 -6 -80 -10 -78 -4 3 -7
-21 -7 -53 1 -62 -4 -115 -16 -200 -7 -48 -10 -53 -39 -59 -17 -3 -37 -11 -43
-16 -9 -7 -13 -7 -13 2 0 9 -6 8 -19 -4 -11 -10 -28 -16 -38 -15 -10 1 -31 -3
-46 -10 -37 -14 -190 -57 -240 -66 -20 -4 -40 -11 -43 -16 -3 -5 -9 -7 -13 -5
-4 3 -25 -1 -47 -9 -52 -19 -104 -18 -143 1 -17 9 -39 13 -47 10 -10 -4 -13
-2 -8 6 5 8 2 9 -10 5 -10 -4 -29 -4 -43 -1 -19 5 -22 9 -11 16 9 7 3 8 -19 4
-18 -3 -33 -2 -33 2 0 5 -27 14 -60 20 -33 7 -60 17 -60 23 0 6 -4 7 -10 4
-14 -9 -81 6 -74 16 3 5 -2 6 -10 3 -8 -3 -30 1 -48 9 -18 8 -46 18 -61 21
-32 7 -50 44 -41 82 4 15 2 24 -6 24 -8 0 -11 19 -9 58 1 32 -1 64 -5 70 -9
15 -11 132 -2 160 5 16 4 22 -6 20 -9 -2 -14 12 -15 47 -3 60 -29 359 -45 507
-6 59 -8 122 -4 140 4 24 3 29 -4 18 -7 -11 -10 -7 -11 20 0 19 -2 53 -4 75
-2 22 -7 103 -10 180 l-5 141 734 -1 c404 0 738 -3 742 -8z"/>
<path d="M1263 1703 c82 -2 212 -2 290 0 78 1 12 3 -148 3 -159 0 -223 -2
-142 -3z"/>
<path d="M1061 1008 c1 -293 5 -564 9 -603 4 -38 8 201 8 533 1 396 -1 602 -8
602 -7 0 -10 -183 -9 -532z"/>
<path d="M987 1523 c-4 -6 -27 -8 -57 -5 -33 3 -50 1 -50 -7 0 -6 18 -12 43
-12 38 -2 64 -3 106 -8 10 -1 11 -4 2 -15 -17 -20 -11 -998 7 -1004 9 -3 12
102 12 501 0 278 -3 512 -6 521 -3 9 -14 16 -24 16 -10 0 -20 5 -22 12 -3 8
-6 9 -11 1z"/>
<path d="M1145 1504 c-26 -12 -27 -14 -5 -9 14 2 130 5 258 5 148 0 232 4 232
10 0 6 -82 10 -227 10 -179 -1 -234 -4 -258 -16z"/>
<path d="M856 1494 c-3 -9 -6 -182 -6 -385 0 -239 -4 -369 -10 -369 -5 0 -10
5 -10 12 0 6 -3 8 -6 5 -4 -4 -2 -12 4 -20 9 -10 5 -13 -16 -13 -15 0 -29 2
-32 6 -8 10 -85 30 -114 30 -15 0 -29 6 -32 13 -4 11 -34 14 -66 8 -16 -3 -30
-78 -24 -132 7 -68 23 -99 51 -99 28 0 49 -15 41 -29 -5 -8 -1 -8 17 0 20 9
30 8 53 -7 15 -11 25 -13 21 -6 -11 16 2 15 38 -4 16 -8 49 -18 72 -21 24 -3
46 -10 49 -14 3 -5 20 -9 39 -9 19 0 37 -4 40 -10 4 -6 -1 -7 -12 -4 -12 4
-14 3 -6 -3 17 -12 83 -4 83 10 0 6 -3 8 -6 4 -3 -3 -18 -1 -33 5 -24 9 -81
25 -331 92 l-85 22 -5 90 c-3 49 -3 92 0 96 3 4 25 1 50 -8 25 -8 91 -27 148
-43 l102 -29 0 414 c0 228 -2 414 -4 414 -2 0 -7 -7 -10 -16z"/>
<path d="M1644 1487 c0 -12 -4 -59 -8 -104 -5 -52 -4 -83 2 -83 10 0 25 101
24 159 -1 38 -17 63 -18 28z"/>
<path d="M1123 1155 c1 -173 5 -315 8 -315 15 0 19 113 13 363 -4 147 -11 267
-15 267 -5 0 -8 -142 -6 -315z"/>
<path d="M1685 1300 c-3 -25 -5 -63 -2 -85 3 -30 4 -25 5 22 1 34 6 63 11 65
4 2 5 12 1 23 -6 16 -9 10 -15 -25z"/>
<path d="M1298 1173 l-3 -135 45 6 c25 3 90 11 144 16 55 5 104 15 110 21 8 8
-9 9 -69 3 -44 -5 -107 -9 -140 -9 l-60 0 -3 98 c-3 97 -3 97 23 107 15 6 83
10 153 10 87 0 122 3 112 10 -8 6 -81 10 -162 9 l-147 -1 -3 -135z"/>
<path d="M824 1180 c0 -69 1 -97 3 -62 2 34 2 90 0 125 -2 34 -3 6 -3 -63z"/>
<path d="M1607 1015 c-22 -206 -27 -258 -31 -342 -3 -55 -1 -93 5 -93 5 0 9 6
9 13 0 6 5 75 11 152 6 77 10 157 10 178 -1 22 2 44 7 50 5 7 6 35 3 62 l-7
50 -7 -70z"/>
<path d="M1658 935 c-16 -168 -17 -197 -3 -100 9 55 14 118 13 140 -2 27 -5
14 -10 -40z"/>
<path d="M1425 870 c-41 -15 -266 -52 -281 -46 -8 3 -12 2 -9 -4 9 -14 85 -12
185 4 59 10 89 11 98 4 13 -11 16 -56 4 -74 -8 -13 -94 -44 -122 -44 -10 0
-22 -4 -25 -10 -3 -5 -19 -10 -34 -10 -30 0 -81 -20 -81 -32 0 -5 3 -8 8 -8
17 0 187 45 192 51 3 4 22 10 43 14 43 8 50 23 45 107 -3 51 -5 55 -23 48z"/>
<path d="M1636 659 c-12 -55 -37 -291 -32 -296 3 -4 6 2 6 13 1 10 9 82 19
159 17 128 20 184 7 124z"/>
<path d="M1126 553 c2 -38 4 -70 4 -73 0 -3 5 2 10 10 17 26 9 130 -10 130 -4
0 -6 -30 -4 -67z"/>
<path d="M1491 545 c-18 -8 -37 -12 -42 -9 -5 3 -9 1 -9 -4 0 -5 -33 -14 -72
-21 -40 -7 -104 -24 -141 -37 -38 -13 -74 -21 -80 -18 -9 5 -9 3 0 -6 10 -11
24 -11 75 -1 92 19 96 20 78 32 -11 8 -8 9 13 4 16 -3 43 -1 60 4 42 13 135
38 170 45 15 4 25 11 22 16 -9 14 -34 12 -74 -5z"/>
<path d="M1161 215 c-25 -6 -46 -17 -47 -23 -1 -7 0 -8 3 -2 2 5 14 10 26 11
12 0 38 7 57 14 43 16 21 17 -39 0z"/>
</g>
</svg>
