<?xml version="1.0" standalone="no"?>
<!DOCTYPE svg PUBLIC "-//W3C//DTD SVG 20010904//EN"
 "http://www.w3.org/TR/2001/REC-SVG-20010904/DTD/svg10.dtd">
<svg version="1.0" xmlns="http://www.w3.org/2000/svg"
 width="225.000000pt" height="225.000000pt" viewBox="0 0 225.000000 225.000000"
 preserveAspectRatio="xMidYMid meet">
<metadata>
Created by potrace 1.10, written by Peter Selinger 2001-2011
</metadata>
<g transform="translate(0.000000,225.000000) scale(0.100000,-0.100000)"
fill="#000000" stroke="none">
<path d="M740 1792 c-251 -145 -349 -207 -362 -228 -16 -26 -18 -65 -18 -439
0 -383 1 -412 19 -440 12 -20 61 -54 142 -100 l123 -70 87 0 c100 0 128 13
166 81 22 39 23 43 23 447 l0 407 -55 0 -54 0 -3 -391 -3 -391 -28 -24 c-44
-37 -77 -31 -199 37 l-108 61 0 383 0 382 326 187 c179 103 331 185 339 182 7
-2 116 -64 242 -137 125 -72 267 -154 316 -181 l87 -50 0 -383 0 -383 -122
-70 c-68 -38 -210 -120 -316 -181 -106 -62 -199 -114 -207 -117 -8 -3 -53 17
-101 45 l-86 51 -59 -22 c-32 -13 -57 -27 -56 -33 2 -5 59 -42 128 -82 165
-97 163 -97 344 8 77 44 232 133 344 197 145 83 209 126 222 147 18 28 19 58
19 440 0 374 -2 413 -18 439 -13 21 -111 83 -362 228 -294 169 -350 198 -385
198 -35 0 -92 -29 -385 -198z m516 112 c55 -31 102 -61 106 -67 4 -7 8 -9 8
-5 0 4 24 -7 53 -24 28 -17 72 -42 97 -56 239 -133 327 -190 334 -216 3 -12 6
-198 6 -414 0 -354 -2 -397 -17 -423 -10 -16 -26 -32 -38 -35 -11 -4 -22 -9
-25 -13 -3 -3 -16 -12 -30 -20 -14 -8 -79 -46 -145 -84 -66 -38 -145 -83 -175
-100 -30 -17 -83 -48 -118 -69 -34 -21 -67 -38 -72 -38 -6 0 -10 -3 -10 -8 0
-4 -19 -16 -42 -26 -54 -23 -106 -15 -163 24 -24 17 -46 30 -49 30 -9 0 -76
44 -76 50 0 3 9 11 21 18 18 11 26 9 67 -15 26 -16 68 -39 93 -53 l47 -24 113
64 c316 176 523 300 547 326 l22 25 0 377 c-1 281 -4 381 -13 393 -10 14 -142
99 -153 99 -2 0 -65 36 -140 80 -75 44 -138 80 -140 80 -1 0 -47 27 -102 59
-56 33 -110 62 -121 66 -15 5 -52 -10 -127 -52 -58 -32 -114 -62 -125 -68 -10
-5 -19 -13 -19 -17 0 -5 -4 -8 -9 -8 -5 0 -64 -31 -131 -70 -67 -38 -126 -70
-130 -70 -5 0 -10 -3 -12 -7 -1 -5 -23 -19 -48 -32 -25 -13 -57 -35 -72 -49
l-28 -26 0 -380 c1 -358 2 -382 19 -403 11 -13 22 -23 24 -23 12 0 137 -77
133 -81 -3 -3 3 -5 12 -6 9 -1 36 -7 60 -14 39 -12 47 -11 79 6 72 40 73 45
73 451 l0 361 25 -5 25 -4 0 -380 c0 -363 -1 -381 -21 -419 -40 -79 -147 -93
-264 -34 -147 73 -215 125 -215 164 0 9 0 185 -1 391 0 206 3 388 6 403 6 22
32 43 139 106 72 42 151 88 176 102 25 13 46 27 48 32 2 4 7 7 12 7 4 0 63 32
129 70 67 39 126 70 131 70 6 0 10 4 10 8 0 5 12 13 28 19 55 22 86 15 188
-43z"/>
<path d="M1172 1451 c-93 -32 -142 -97 -142 -186 0 -56 20 -96 62 -128 45 -33
82 -44 228 -63 135 -17 204 -41 212 -70 9 -36 -10 -79 -44 -99 -28 -17 -51
-20 -154 -20 -116 0 -122 1 -157 28 -23 18 -41 42 -48 68 l-12 40 -56 -3 -56
-3 3 -35 c12 -128 107 -195 292 -207 154 -10 270 28 324 104 57 82 41 200 -34
248 -48 30 -87 40 -247 65 -72 10 -142 25 -157 31 -55 25 -42 99 21 126 28 11
62 14 133 11 113 -5 141 -19 166 -84 l17 -44 53 0 54 0 0 33 c0 48 -44 128
-85 156 -20 13 -59 30 -88 38 -75 19 -220 16 -285 -6z m227 -13 c95 -13 141
-41 179 -107 24 -41 23 -59 -4 -64 -19 -3 -28 3 -46 32 -41 67 -91 91 -190 93
-126 2 -187 -23 -208 -86 -23 -71 25 -117 144 -136 166 -25 203 -32 246 -46
62 -20 87 -44 102 -98 10 -37 10 -53 -1 -83 -21 -62 -36 -78 -98 -109 -55 -27
-66 -28 -188 -29 -123 0 -133 2 -187 28 -64 31 -96 69 -105 123 -6 34 -5 36
23 32 22 -2 31 -10 39 -33 11 -33 34 -56 80 -83 47 -26 257 -25 304 3 121 71
87 188 -62 213 -34 6 -100 16 -147 22 -47 6 -94 15 -105 19 -11 5 -32 13 -48
20 -15 6 -36 25 -48 43 -26 42 -22 126 8 166 28 38 90 70 154 80 69 11 81 11
158 0z"/>
</g>
</svg>
