<?xml version="1.0" standalone="no"?>
<!DOCTYPE svg PUBLIC "-//W3C//DTD SVG 20010904//EN"
 "http://www.w3.org/TR/2001/REC-SVG-20010904/DTD/svg10.dtd">
<svg version="1.0" xmlns="http://www.w3.org/2000/svg"
 width="259.000000pt" height="194.000000pt" viewBox="0 0 259.000000 194.000000"
 preserveAspectRatio="xMidYMid meet">
<metadata>
Created by potrace 1.10, written by Peter Selinger 2001-2011
</metadata>
<g transform="translate(0.000000,194.000000) scale(0.100000,-0.100000)"
fill="#000000" stroke="none">
<path d="M1215 1460 c-59 -9 -114 -30 -138 -54 -13 -13 -17 -35 -17 -93 l0
-75 120 4 c114 3 120 2 120 -17 0 -19 -6 -20 -185 -17 -176 3 -188 2 -225 -19
-65 -37 -85 -90 -85 -224 0 -93 3 -116 21 -150 34 -62 56 -77 128 -84 l64 -7
4 86 c4 94 23 140 67 161 16 8 88 14 191 17 244 6 252 13 258 217 4 159 -6
193 -66 224 -38 19 -145 42 -187 40 -11 -1 -42 -5 -70 -9z m178 -31 c18 0 25
-4 21 -11 -5 -7 0 -9 15 -5 18 4 20 3 11 -8 -9 -11 -6 -13 14 -11 16 2 23 -1
19 -7 -4 -6 0 -8 9 -5 8 4 15 1 16 -5 11 -100 13 -232 3 -279 -11 -52 -14 -57
-31 -48 -16 8 -18 7 -15 -8 3 -15 -2 -18 -28 -15 -26 3 -28 1 -12 -6 19 -9
-97 -7 -199 4 -29 3 -36 1 -25 -6 10 -8 4 -9 -23 -7 -21 2 -38 0 -38 -6 0 -5
-3 -7 -6 -3 -8 8 -64 -13 -64 -24 0 -5 -7 -9 -15 -9 -8 0 -15 -7 -15 -16 0 -8
-4 -13 -9 -10 -5 3 -14 -1 -21 -9 -11 -13 -10 -14 5 -9 16 6 16 5 4 -17 -7
-13 -13 -37 -14 -54 -4 -84 -6 -96 -14 -90 -5 3 -12 1 -15 -3 -15 -25 -102 18
-91 45 2 8 0 11 -5 8 -6 -3 -10 2 -10 12 0 15 -2 16 -10 3 -8 -11 -9 -7 -4 14
5 19 3 27 -4 23 -6 -5 -12 14 -15 51 -7 81 -6 112 3 112 5 0 6 9 3 20 -4 14
-1 20 8 18 8 -2 14 7 15 22 5 58 10 65 40 62 22 -2 26 -1 14 7 -12 9 -12 11 6
11 11 0 23 2 26 5 11 11 348 10 349 0 0 -5 3 -4 6 3 2 6 8 10 12 8 13 -9 11
55 -3 75 -8 11 -15 17 -17 12 -2 -4 -25 -6 -52 -3 l-47 5 26 39 c18 26 23 41
16 44 -7 2 -12 10 -12 18 0 8 -4 14 -9 14 -5 0 -12 7 -15 15 -9 24 31 35 104
30 36 -3 78 -6 93 -6z m-203 -53 c28 -34 -11 -93 -47 -70 -32 20 -39 41 -19
63 22 24 49 27 66 7z"/>
<path d="M1568 1135 c-9 -158 -40 -179 -273 -183 -98 -1 -169 -7 -183 -14 -44
-23 -52 -55 -52 -221 l0 -153 33 -31 c18 -17 52 -35 79 -42 66 -16 205 -14
264 4 79 24 88 36 94 116 3 39 2 75 -1 81 -4 6 -51 8 -122 6 -102 -3 -117 -1
-120 14 -4 15 13 17 199 20 l203 3 35 34 c45 43 67 109 67 198 1 160 -51 237
-162 244 l-57 4 -4 -80z m106 39 c9 -9 16 -11 16 -4 0 22 21 -2 47 -53 19 -37
26 -65 24 -97 -1 -35 1 -42 9 -30 9 12 10 12 6 -5 -2 -11 -7 -42 -11 -70 -8
-61 -14 -72 -60 -118 l-36 -36 -184 -3 c-157 -3 -187 -6 -201 -20 -16 -16 -16
-19 -1 -42 15 -23 22 -25 66 -20 39 4 50 2 55 -11 3 -9 2 -13 -4 -10 -6 3 -10
-1 -10 -9 0 -9 -4 -16 -9 -16 -13 0 -21 -40 -8 -41 7 0 7 -3 -1 -6 -10 -4 -6
-13 15 -35 23 -24 25 -30 13 -38 -8 -5 -19 -10 -25 -10 -5 0 -3 5 5 10 9 6 10
10 3 10 -6 0 -15 -4 -18 -10 -8 -13 -130 -13 -180 1 -51 14 -101 49 -85 59 8
5 7 9 -4 13 -14 5 -16 28 -15 154 0 92 4 140 9 128 9 -20 9 -20 10 0 1 33 24
53 65 59 31 5 35 4 20 -4 -17 -8 -15 -9 10 -5 17 2 82 6 146 7 64 2 112 7 105
11 -7 5 -3 7 9 6 45 -3 70 1 56 10 -11 7 -10 10 5 15 19 6 64 67 64 86 0 6 3
9 8 7 10 -7 11 117 0 124 -5 3 9 6 31 7 24 1 46 -4 55 -14z m-168 -518 c3 -8
4 -23 2 -34 -2 -16 -7 -14 -25 14 -22 33 -22 34 -2 34 11 0 22 -6 25 -14z
m-36 -30 c15 -19 9 -56 -11 -69 -9 -5 -28 -7 -42 -3 -48 12 -32 86 19 86 12 0
27 -7 34 -14z"/>
</g>
</svg>
