<?xml version="1.0" standalone="no"?>
<!DOCTYPE svg PUBLIC "-//W3C//DTD SVG 20010904//EN"
 "http://www.w3.org/TR/2001/REC-SVG-20010904/DTD/svg10.dtd">
<svg version="1.0" xmlns="http://www.w3.org/2000/svg"
 width="286.000000pt" height="176.000000pt" viewBox="0 0 286.000000 176.000000"
 preserveAspectRatio="xMidYMid meet">
<metadata>
Created by potrace 1.10, written by Peter Selinger 2001-2011
</metadata>
<g transform="translate(0.000000,176.000000) scale(0.100000,-0.100000)"
fill="#000000" stroke="none">
<path d="M1124 1609 c-42 -12 -90 -68 -105 -121 -7 -25 -9 -81 -7 -135 l5 -91
-83 -41 c-92 -46 -148 -101 -165 -163 -20 -77 41 -159 171 -227 l74 -39 -3
-102 c-2 -92 0 -106 24 -155 33 -68 91 -101 161 -91 46 6 128 43 179 80 17 12
35 25 41 29 6 4 30 -6 52 -22 67 -49 142 -82 196 -88 44 -4 57 -1 93 23 65 43
86 101 81 227 l-3 100 60 31 c84 43 122 72 156 119 37 52 39 111 5 165 -33 52
-53 68 -143 112 l-78 39 0 113 c-1 96 -4 119 -23 155 -25 48 -68 82 -115 90
-44 7 -133 -26 -205 -76 -32 -23 -61 -41 -65 -41 -5 0 -36 19 -69 42 -55 37
-160 80 -191 77 -7 0 -26 -5 -43 -10z m124 -41 c17 -5 65 -33 105 -62 l74 -53
39 33 c56 48 145 93 196 100 52 6 98 -18 125 -68 19 -36 25 -180 10 -250 -7
-33 -5 -38 10 -38 33 0 159 -67 196 -104 38 -37 56 -85 49 -123 -8 -43 -71
-101 -154 -143 -44 -22 -86 -40 -93 -40 -10 0 -11 -9 -4 -37 12 -54 11 -169
-3 -215 -17 -57 -68 -98 -122 -98 -53 0 -146 45 -207 99 l-44 39 -45 -40 c-93
-82 -205 -117 -269 -83 -54 27 -74 87 -69 204 3 53 8 104 13 114 5 12 3 17 -9
17 -33 0 -146 59 -190 100 -61 57 -76 104 -49 157 32 63 108 112 240 158 8 3
8 15 1 47 -16 70 -6 213 18 246 43 57 92 68 182 40z"/>
<path d="M1122 1505 c-27 -34 -35 -99 -22 -181 6 -38 12 -69 13 -70 1 -1 38 5
82 12 85 15 88 17 163 113 l26 33 -34 29 c-48 40 -148 89 -181 89 -17 0 -35
-9 -47 -25z m123 -33 c49 -24 85 -52 85 -66 0 -21 -53 -84 -80 -95 -14 -6 -45
-12 -70 -13 l-45 -3 -7 45 c-10 66 0 128 25 145 22 16 41 13 92 -13z"/>
<path d="M1595 1504 c-28 -14 -68 -40 -90 -58 l-40 -34 49 -63 c28 -35 50 -65
50 -66 2 -4 171 -30 175 -27 2 2 6 50 8 106 4 91 2 107 -16 136 -26 40 -64 42
-136 6z m110 -27 c16 -23 21 -152 7 -174 -6 -10 -22 -10 -67 -3 -51 8 -65 15
-92 47 -41 48 -41 66 0 97 69 53 129 66 152 33z"/>
<path d="M1386 1325 l-37 -45 76 0 76 0 -38 45 c-20 25 -38 45 -39 45 -1 0
-18 -20 -38 -45z"/>
<path d="M1277 1173 c-19 -32 -45 -77 -58 -101 l-23 -43 27 -52 c15 -29 41
-73 57 -99 l30 -48 114 0 114 0 29 48 c17 26 42 69 58 96 31 56 32 54 -43 179
l-46 77 -112 0 -113 0 -34 -57z m259 -8 c19 -20 34 -42 34 -48 0 -7 9 -23 20
-37 29 -37 24 -67 -23 -145 l-42 -70 -97 -3 -98 -3 -46 73 c-26 40 -46 82 -46
94 0 24 66 142 89 159 8 6 51 12 94 14 l80 2 35 -36z"/>
<path d="M1364 1156 c-73 -32 -104 -140 -58 -203 29 -40 101 -75 139 -67 128
28 159 196 49 265 -36 22 -86 24 -130 5z m116 -31 c32 -17 60 -61 60 -95 0
-29 -26 -76 -52 -94 -12 -9 -42 -16 -66 -16 -37 0 -50 6 -79 35 -33 33 -35 39
-30 82 9 86 90 128 167 88z"/>
<path d="M1181 1209 c-24 -5 -45 -10 -47 -12 -2 -2 4 -26 13 -54 l16 -51 31
51 c18 29 35 58 39 65 9 13 10 13 -52 1z"/>
<path d="M1622 1199 c8 -13 25 -44 38 -69 l23 -45 12 35 c28 82 29 77 -12 84
-21 4 -47 10 -58 13 -18 5 -18 4 -3 -18z"/>
<path d="M972 1145 c-74 -37 -122 -83 -122 -115 0 -34 62 -92 135 -127 75 -35
95 -40 95 -21 0 7 12 42 26 79 l26 67 -26 65 c-14 36 -26 70 -26 76 0 20 -36
12 -108 -24z m86 -17 c5 -7 17 -34 26 -60 15 -45 15 -49 -9 -102 -14 -31 -27
-56 -31 -56 -19 0 -120 59 -139 82 -38 45 -21 75 70 122 57 29 69 31 83 14z"/>
<path d="M1746 1104 l-28 -77 26 -64 c14 -35 26 -70 26 -79 0 -19 20 -14 106
27 63 30 124 87 124 116 0 32 -51 82 -113 112 -109 53 -108 53 -141 -35z m134
6 c98 -50 102 -103 10 -157 -77 -47 -92 -44 -118 20 -21 50 -22 56 -7 97 27
76 36 80 115 40z"/>
<path d="M1146 910 c-10 -28 -17 -52 -15 -54 8 -7 110 -23 107 -17 -7 15 -70
121 -72 121 -1 0 -10 -23 -20 -50z"/>
<path d="M1646 899 l-36 -61 52 7 c29 4 55 9 57 10 3 4 -29 105 -34 105 -1 0
-19 -27 -39 -61z"/>
<path d="M1103 763 c-13 -66 -8 -165 10 -200 15 -29 23 -33 57 -33 52 0 82 13
158 67 l64 45 -30 32 c-16 17 -41 47 -56 67 -24 33 -32 37 -86 42 -33 4 -71 9
-85 13 -21 5 -25 2 -32 -33z m157 -23 c11 -6 34 -30 51 -53 l30 -42 -28 -23
c-71 -60 -153 -78 -175 -39 -13 25 -16 145 -4 166 10 15 91 10 126 -9z"/>
<path d="M1638 786 c-66 -11 -68 -12 -118 -74 -27 -34 -50 -65 -50 -70 0 -16
118 -93 163 -107 60 -18 89 -8 107 36 15 35 18 133 7 192 -9 41 -5 40 -109 23z
m78 -41 c13 -32 9 -133 -6 -160 -13 -24 -19 -26 -52 -22 -46 6 -138 63 -138
85 0 24 68 100 93 104 61 10 98 7 103 -7z"/>
<path d="M1350 773 c0 -1 17 -22 38 -46 l38 -44 30 36 c48 57 48 56 -32 56
-41 0 -74 -1 -74 -2z"/>
<path d="M780 380 c-38 -38 -21 -200 21 -200 5 0 18 9 30 21 21 21 21 21 42 1
23 -20 67 -26 167 -23 27 1 218 2 286 1 53 0 68 16 52 58 -9 23 -9 37 0 57 13
29 3 53 -30 74 -16 10 -23 9 -37 -3 -9 -9 -33 -15 -52 -14 -19 0 -44 -4 -56
-10 -16 -9 -28 -8 -51 4 -27 13 -35 13 -65 0 -21 -8 -40 -10 -48 -5 -8 5 -31
9 -53 9 -26 0 -47 8 -68 25 -38 32 -108 35 -138 5z m124 -26 c20 -19 20 -38 1
-58 -8 -8 -11 -17 -6 -20 15 -10 19 -76 4 -76 -8 0 -13 13 -13 34 0 36 -12 46
-56 46 -21 0 -24 -4 -24 -40 0 -22 -4 -40 -10 -40 -6 0 -10 35 -10 85 l0 85
49 0 c32 0 55 -6 65 -16z m436 -15 c0 -11 4 -18 9 -14 5 3 12 1 16 -5 3 -5 -1
-10 -9 -10 -12 0 -16 -11 -16 -45 0 -33 4 -45 15 -45 8 0 15 -5 15 -11 0 -6
-10 -9 -22 -7 -20 3 -24 10 -28 58 -6 63 -2 100 11 100 5 0 9 -9 9 -21z m-318
-21 c9 -7 19 -23 23 -35 6 -22 3 -23 -40 -23 -39 0 -46 -3 -43 -17 4 -22 48
-30 59 -12 4 8 11 10 15 6 12 -12 -18 -37 -45 -37 -36 0 -51 17 -51 59 0 57
44 89 82 59z m126 0 c7 -7 12 -31 12 -55 0 -24 5 -43 10 -43 6 0 10 -4 10 -8
0 -16 -98 -12 -111 4 -18 22 -1 46 39 56 18 5 32 15 32 23 0 20 -29 19 -52 -2
-16 -15 -18 -15 -18 0 0 30 55 48 78 25z m133 -9 c26 -26 16 -39 -12 -14 -28
26 -54 9 -54 -36 0 -28 4 -35 23 -37 14 -2 29 4 37 15 7 10 17 15 21 11 12
-12 -27 -48 -52 -48 -53 0 -76 83 -32 114 30 21 44 20 69 -5z"/>
<path d="M810 320 c0 -26 4 -30 28 -30 38 0 65 21 56 43 -4 12 -17 17 -45 17
-37 0 -39 -2 -39 -30z"/>
<path d="M967 303 c-18 -17 -5 -33 28 -33 37 0 43 8 23 28 -13 13 -41 16 -51
5z"/>
<path d="M1093 253 c-7 -2 -13 -11 -13 -19 0 -22 54 -14 58 9 3 17 -17 22 -45
10z"/>
<path d="M1432 378 c-17 -17 -16 -159 2 -183 13 -18 25 -17 57 7 13 9 22 7 44
-10 19 -15 32 -19 44 -12 10 5 23 5 31 0 19 -12 201 -1 218 12 9 8 20 7 38 -3
21 -11 29 -11 46 0 17 11 27 10 59 -4 32 -15 43 -16 68 -5 33 13 41 27 48 81
6 45 -29 91 -67 90 -61 -1 -99 -8 -114 -20 -15 -13 -22 -10 -56 24 -33 32 -42
36 -54 25 -9 -7 -23 -10 -32 -6 -8 3 -25 0 -37 -6 -37 -21 -109 -18 -134 5
l-23 20 -23 -21 -24 -22 -18 20 c-20 22 -55 26 -73 8z m79 -75 l44 -67 3 67
c4 97 22 83 22 -18 0 -49 -4 -85 -10 -85 -5 0 -30 30 -55 67 l-45 68 0 -68 c0
-38 -4 -67 -10 -67 -6 0 -10 35 -10 85 0 47 4 85 9 85 5 0 28 -30 52 -67z
m249 37 c0 -11 6 -20 13 -21 10 0 10 -2 0 -6 -15 -6 -18 -93 -3 -93 6 0 10 -4
10 -10 0 -5 -9 -10 -20 -10 -18 0 -20 7 -20 55 0 37 -4 55 -12 56 -10 0 -10 2
0 6 6 2 12 13 12 24 0 10 5 19 10 19 6 0 10 -9 10 -20z m-72 -22 c7 -7 12 -31
12 -55 0 -24 5 -43 10 -43 6 0 10 -4 10 -9 0 -5 -23 -8 -51 -7 -84 2 -95 55
-14 70 24 5 32 11 28 21 -7 20 -42 19 -49 0 -8 -19 -24 -20 -24 0 0 29 56 45
78 23z m132 -59 c0 -33 -4 -59 -10 -59 -6 0 -10 29 -10 66 0 41 4 63 10 59 6
-3 10 -33 10 -66z m51 21 c11 -35 29 -55 29 -31 0 20 33 85 37 73 6 -15 -36
-122 -47 -122 -9 0 -50 96 -50 117 0 26 19 3 31 -37z m165 42 c11 -7 34 -45
34 -56 0 -3 -23 -6 -50 -6 -48 0 -50 -1 -40 -20 12 -22 40 -26 58 -8 17 17 28
2 12 -17 -16 -20 -64 -19 -80 1 -41 48 16 140 66 106z"/>
<path d="M1633 253 c-22 -8 -14 -33 10 -33 23 0 47 17 47 32 0 9 -37 10 -57 1z"/>
<path d="M1980 291 c-10 -19 -8 -21 25 -21 29 0 36 3 33 18 -5 25 -44 27 -58
3z"/>
</g>
</svg>
