<?xml version="1.0" standalone="no"?>
<!DOCTYPE svg PUBLIC "-//W3C//DTD SVG 20010904//EN"
 "http://www.w3.org/TR/2001/REC-SVG-20010904/DTD/svg10.dtd">
<svg version="1.0" xmlns="http://www.w3.org/2000/svg"
 width="241.000000pt" height="209.000000pt" viewBox="0 0 241.000000 209.000000"
 preserveAspectRatio="xMidYMid meet">
<metadata>
Created by potrace 1.10, written by Peter Selinger 2001-2011
</metadata>
<g transform="translate(0.000000,209.000000) scale(0.100000,-0.100000)"
fill="#000000" stroke="none">
<path d="M622 2063 c-136 -67 -175 -286 -106 -603 5 -23 1 -26 -61 -44 -101
-29 -253 -108 -317 -165 -143 -129 -144 -281 -1 -411 62 -57 215 -137 318
-166 62 -18 66 -21 61 -44 -69 -318 -29 -539 109 -604 51 -25 68 -13 18 12
-120 62 -165 223 -129 464 9 59 19 113 22 121 9 24 -29 54 -94 76 -161 54
-297 142 -357 231 -26 39 -30 54 -30 115 0 61 4 76 30 115 60 88 187 172 340
225 97 33 118 50 110 85 -15 58 -35 218 -35 274 1 72 21 162 48 214 17 33 59
72 118 109 30 18 -4 16 -44 -4z"/>
<path d="M810 2068 c14 -6 52 -24 85 -39 71 -32 146 -83 233 -156 35 -29 69
-53 76 -53 8 0 44 26 82 58 94 78 171 128 262 169 64 28 70 33 38 28 -76 -13
-197 -84 -315 -185 l-67 -57 -44 40 c-116 104 -259 190 -336 201 -36 6 -37 5
-14 -6z"/>
<path d="M1780 2044 c44 -32 62 -52 89 -108 50 -102 53 -215 13 -429 -13 -70
-1 -85 93 -119 137 -48 223 -98 295 -168 94 -92 112 -166 66 -265 -44 -96
-198 -202 -370 -255 -35 -11 -69 -27 -76 -35 -13 -16 -10 -65 9 -185 34 -200
-10 -359 -117 -430 -57 -37 -55 -52 2 -25 85 41 135 143 143 295 5 87 -3 159
-32 305 -6 30 -6 30 60 49 101 29 253 108 317 165 143 129 144 281 1 411 -62
57 -215 137 -318 166 -66 19 -66 19 -60 49 49 229 45 394 -13 499 -31 56 -83
102 -127 112 -26 5 -22 1 25 -32z"/>
<path d="M675 2000 c-98 -41 -140 -221 -100 -429 25 -130 21 -128 201 -102 81
12 155 26 165 32 10 5 31 26 46 47 15 20 56 71 90 113 85 104 84 112 -15 192
-162 129 -302 183 -387 147z m160 -31 c64 -24 176 -97 249 -161 l49 -44 -85
-106 c-48 -58 -91 -115 -97 -126 -8 -16 -28 -22 -103 -31 -51 -7 -122 -18
-158 -25 -36 -8 -68 -11 -71 -8 -18 18 -41 209 -37 295 11 199 93 266 253 206z"/>
<path d="M1564 1985 c-124 -47 -294 -179 -294 -228 0 -9 33 -58 73 -109 129
-163 107 -148 243 -169 180 -29 198 -31 213 -21 34 24 63 282 42 381 -17 82
-39 119 -86 146 -53 32 -110 32 -191 0z m184 -15 c74 -45 100 -197 67 -391 -9
-57 -19 -107 -21 -110 -2 -4 -32 -1 -66 6 -35 7 -106 19 -158 26 l-95 12 -63
81 c-34 45 -79 101 -99 125 l-38 44 50 44 c173 153 336 216 423 163z"/>
<path d="M1138 1640 c-111 -117 -102 -140 58 -140 123 0 158 10 149 43 -9 26
-91 123 -123 145 -23 15 -25 13 -84 -48z m135 -30 c37 -43 67 -82 67 -85 0 -3
-61 -5 -135 -5 -74 0 -135 2 -135 5 0 5 131 165 135 165 1 0 32 -36 68 -80z"/>
<path d="M1086 1441 l-98 -6 -33 -40 c-19 -21 -42 -55 -53 -75 -11 -19 -45
-80 -76 -135 -31 -55 -59 -111 -63 -125 -7 -27 47 -140 140 -289 73 -118 77
-120 222 -121 289 -3 283 -4 319 34 37 40 56 63 56 70 0 2 17 33 39 68 21 35
55 97 76 138 37 73 38 76 23 115 -23 66 -150 285 -189 326 l-36 39 -85 0 c-47
0 -98 2 -114 4 -16 2 -73 0 -128 -3z m398 -126 c35 -55 83 -138 108 -185 l45
-86 -59 -109 c-33 -59 -82 -144 -110 -187 l-50 -78 -215 2 -215 3 -62 100
c-35 55 -84 138 -109 185 l-46 86 60 109 c34 60 84 144 111 187 l50 78 215 -2
215 -3 62 -100z"/>
<path d="M1115 1231 c-141 -65 -156 -266 -27 -356 39 -27 52 -30 117 -30 65 0
78 3 117 30 132 92 112 298 -34 360 -50 20 -124 19 -173 -4z m180 -24 c129
-73 123 -268 -9 -328 -69 -31 -156 -19 -209 29 -63 56 -75 160 -28 235 54 84
161 112 246 64z"/>
<path d="M751 1409 c-88 -15 -106 -28 -105 -75 1 -45 38 -146 60 -165 8 -6 -2
32 -23 90 -20 56 -34 104 -31 107 3 3 49 12 102 21 60 10 92 19 84 24 -15 10
-14 10 -87 -2z"/>
<path d="M1572 1411 c-8 -4 28 -15 84 -24 53 -9 99 -18 102 -21 2 -3 -10 -46
-28 -96 -32 -90 -36 -129 -7 -73 27 52 50 140 44 165 -6 21 -15 27 -64 36
-100 19 -119 21 -131 13z"/>
<path d="M823 1338 c-57 -90 -96 -168 -80 -162 12 4 31 36 111 181 33 60 10
46 -31 -19z"/>
<path d="M1545 1380 c4 -12 29 -58 56 -103 27 -44 49 -84 49 -88 0 -4 7 -9 15
-13 17 -6 -2 35 -68 147 -41 71 -64 96 -52 57z"/>
<path d="M1864 1349 c-16 -5 -36 -44 -78 -151 -31 -79 -56 -149 -56 -155 0 -6
13 -42 28 -79 16 -38 41 -102 56 -142 15 -40 36 -77 46 -82 22 -12 111 16 214
66 298 145 301 331 7 475 -47 23 -98 45 -113 50 -15 5 -40 13 -56 18 -15 4
-37 5 -48 0z m88 -35 c273 -98 386 -231 299 -351 -32 -45 -102 -99 -176 -136
-78 -39 -205 -81 -214 -71 -4 5 -20 45 -36 89 -15 44 -40 107 -55 141 -27 60
-27 61 -10 95 14 27 73 179 95 247 6 17 14 16 97 -14z"/>
<path d="M435 1326 c-332 -125 -417 -303 -216 -450 104 -77 302 -153 338 -130
8 5 32 55 53 112 22 57 46 117 55 134 20 41 19 66 -4 114 -10 21 -33 80 -52
129 -18 50 -37 96 -42 103 -14 18 -64 14 -132 -12z m149 -81 c18 -49 44 -115
57 -145 l25 -55 -27 -60 c-15 -33 -39 -96 -54 -140 -16 -44 -32 -84 -36 -89
-9 -10 -138 33 -219 74 -304 154 -258 340 120 481 41 16 81 27 89 26 7 -1 28
-42 45 -92z"/>
<path d="M701 917 c-16 -21 -61 -144 -61 -171 0 -13 7 -29 15 -36 19 -16 176
-43 186 -33 5 5 -36 17 -91 27 -55 10 -100 22 -100 26 0 5 16 52 35 105 19 52
33 95 31 95 -2 0 -9 -6 -15 -13z"/>
<path d="M1727 831 c20 -56 34 -104 31 -106 -3 -3 -50 -13 -104 -23 -54 -10
-93 -21 -87 -25 15 -10 171 19 190 34 20 17 16 62 -13 133 -43 108 -57 97 -17
-13z"/>
<path d="M751 878 c31 -62 100 -178 109 -183 13 -8 -1 37 -20 65 -9 14 -33 55
-54 93 -40 73 -70 94 -35 25z"/>
<path d="M1610 829 c-54 -95 -76 -144 -61 -135 10 6 77 119 110 184 40 80 2
42 -49 -49z"/>
<path d="M614 633 c-31 -23 -58 -185 -52 -310 5 -101 36 -182 86 -218 38 -28
148 -26 215 4 59 25 176 106 235 160 49 45 53 73 16 116 -49 58 -59 71 -112
137 -29 37 -61 69 -70 72 -16 5 -182 31 -267 42 -22 3 -45 1 -51 -3z m231 -43
l91 -12 62 -81 c34 -45 79 -102 99 -126 l38 -44 -50 -44 c-74 -65 -186 -138
-250 -162 -158 -59 -242 7 -253 200 -4 74 18 275 34 300 2 3 34 0 71 -7 37 -7
109 -18 158 -24z"/>
<path d="M1670 625 c-41 -7 -102 -16 -134 -20 -68 -8 -74 -12 -193 -163 -45
-56 -73 -100 -73 -115 0 -26 20 -46 125 -125 108 -83 186 -116 270 -116 86 -1
122 22 157 98 19 44 23 68 23 171 0 127 -18 238 -43 268 -17 20 -30 20 -132 2z
m139 -66 c8 -36 15 -121 15 -194 1 -114 -2 -136 -21 -177 -40 -86 -117 -109
-228 -67 -64 24 -176 97 -250 162 l-50 44 38 44 c20 24 65 81 99 125 l62 81
98 13 c55 7 122 18 151 25 29 7 56 12 62 11 5 -2 16 -31 24 -67z"/>
<path d="M1075 576 c-18 -13 -18 -15 8 -58 26 -44 108 -128 126 -128 14 0 122
121 133 150 15 41 -10 50 -137 50 -78 0 -117 -4 -130 -14z m265 -12 c0 -6 -62
-81 -124 -151 -9 -10 -27 6 -79 66 -37 44 -67 82 -67 85 0 3 61 6 135 6 74 0
135 -3 135 -6z"/>
<path d="M1114 204 c-85 -70 -183 -132 -255 -160 -55 -21 -76 -39 -34 -30 84
19 201 89 314 186 l67 57 44 -40 c73 -65 161 -127 230 -162 71 -36 137 -55
126 -36 -4 6 -13 11 -19 11 -35 0 -229 116 -288 172 -38 36 -82 68 -94 68 -7
0 -48 -30 -91 -66z"/>
</g>
</svg>
